<svg xmlns="http://www.w3.org/2000/svg" width="320" height="320" viewBox="0 0 4000 4000"><g id="l1Rtxss1USeMtCbSfuY7Vb3" fill="rgb(235,229,90)"><g><path id="p12quV4IfD" d="M2060 929 l0 -802 103 7 c107 7 174 19 187 33 5 4 133 322 284 706 193 487 276 710 276 737 l0 38 -72 16 c-185 39 -445 66 -650 66 l-128 0 0 -801z"></path><path id="p9Oz4hXQE" d="M1190 899 c-43 -75 -129 -175 -197 -229 -48 -37 -53 -46 -53 -80 0 -36 6 -44 86 -113 152 -132 405 -266 502 -267 41 0 42 1 42 32 0 17 -61 186 -136 375 l-136 343 -36 0 c-35 -1 -39 -5 -72 -61z"></path></g></g><g id="l4dV3CaRs4gQZrd0ZZCjxre" fill="rgb(160,202,115)"><g><path id="p15sxVjpMp" d="M0 2000 l0 -2000 2000 0 2000 0 0 2000 0 2000 -2000 0 -2000 0 0 -2000z m3494 1919 l27 -21 -4 -1312 c-3 -1450 1 -1341 -68 -1550 -189 -568 -791 -974 -1434 -969 -524 5 -974 235 -1270 648 -94 132 -158 275 -203 455 l-26 105 -3 1308 -4 1307 25 25 25 25 1454 0 1454 0 27 -21z"></path></g></g><g id="l1nkWUm7ktTNjmeBCGJyc1E" fill="rgb(180,140,89)"><g><path id="pyJ6otGnf" d="M630 3832 c0 -67 119 -240 256 -373 255 -246 671 -456 1054 -533 69 -14 261 -43 427 -65 554 -74 746 -131 928 -276 52 -42 77 -55 102 -55 l33 0 0 89 c0 88 0 90 -39 138 -101 128 -268 224 -541 311 -85 28 -213 69 -285 91 -401 129 -601 260 -695 456 -33 70 -60 167 -60 219 l0 36 -590 0 -590 0 0 -38z"></path></g></g><g id="lSEGi7syVn6hN2H59LRCU7" fill="rgb(223,122,59)"><g><path id="pRVqQTQ27" d="M840 2002 l0 -89 78 -50 c234 -154 371 -387 372 -633 l0 -85 194 -488 c107 -269 197 -491 200 -494 9 -9 88 -21 194 -28 l102 -8 -2 799 -3 799 -120 11 c-290 27 -522 91 -714 196 -82 44 -191 119 -211 143 -7 9 -29 15 -51 15 l-39 0 0 -88z"></path><path id="p1FX9hxv11" d="M2988 1594 c-3 -5 -121 -300 -262 -655 -193 -488 -256 -657 -256 -689 l0 -43 48 5 c130 13 398 172 558 332 198 198 333 466 351 697 5 67 3 83 -16 123 -32 64 -108 129 -217 183 -91 45 -194 68 -206 47z"></path></g></g><g id="l7AwQP6GU3FQOMo2j5rVtho" fill="rgb(106,176,70)"><g><path id="pFYgVPOYp" d="M840 2801 l0 -569 55 -55 c122 -125 294 -227 487 -291 202 -68 323 -83 738 -96 168 -5 366 -16 440 -25 331 -40 602 -123 767 -236 27 -19 54 -29 78 -29 l36 0 -3 408 -3 407 -29 60 c-38 78 -150 190 -238 239 -37 21 -118 53 -180 72 -131 40 -337 81 -362 71 -14 -6 -16 -19 -14 -99 l3 -93 132 -5 c143 -5 172 -15 140 -48 -15 -14 -41 -18 -147 -21 l-130 -3 0 -54 0 -54 120 0 c119 0 170 -11 170 -36 0 -24 -24 -29 -155 -34 l-130 -5 0 -55 0 -55 132 -5 c143 -5 172 -15 140 -48 -15 -14 -40 -18 -147 -20 l-129 -4 -3 -55 c-2 -41 -8 -59 -21 -67 -28 -17 -57 24 -57 80 l0 44 -500 0 -500 0 0 -34 c0 -71 -35 -115 -67 -84 -8 9 -18 40 -21 69 l-7 54 -141 3 c-115 2 -145 6 -155 18 -11 14 -10 18 6 30 14 10 55 14 157 14 l138 0 0 60 0 60 -130 0 c-127 0 -185 11 -177 34 9 26 56 36 180 36 l128 0 -3 58 -3 57 -141 3 c-115 2 -145 6 -155 18 -11 14 -10 18 6 30 14 10 55 14 157 14 l138 0 0 238 0 237 -113 57 c-128 65 -262 151 -356 226 -49 39 -72 52 -98 52 l-33 0 0 -569z"></path><path id="piVuuHU5t" d="M1530 2770 l0 -200 500 0 500 0 0 104 0 103 -40 7 c-22 3 -122 18 -223 31 -298 41 -425 69 -618 136 -31 10 -70 19 -88 19 l-31 0 0 -200z"></path><path id="pEec5QMiD" d="M1530 2435 l0 -55 500 0 500 0 0 55 0 55 -500 0 -500 0 0 -55z"></path><path id="p4PKApHuA" d="M1530 2255 l0 -55 500 0 500 0 0 55 0 55 -500 0 -500 0 0 -55z"></path><path id="p0G2rSAPr" d="M594 1906 c-4 -9 -4 -162 -1 -339 4 -270 8 -336 25 -412 31 -143 98 -299 179 -421 35 -53 36 -54 86 -54 50 0 51 1 136 88 63 64 96 107 124 162 58 117 70 181 65 339 -5 151 -24 219 -89 326 -43 71 -158 186 -230 229 -125 75 -281 118 -295 82z"></path></g></g><g id="l7IITHxBPmLfmbiSsECQJCU" fill="rgb(153,109,68)"><g><path id="pgPhBRVE9" d="M1890 3817 c0 -125 54 -252 147 -344 56 -55 69 -63 102 -63 31 0 464 168 999 387 6 3 12 20 12 39 l0 34 -630 0 -630 0 0 -53z"></path><path id="p4WsUCBdA" d="M3398 2629 c4 -70 4 -71 -17 -60 -19 11 -21 9 -21 -19 0 -28 2 -30 40 -30 l41 0 -3 88 c-3 80 -5 87 -24 90 -20 3 -21 0 -16 -69z"></path></g></g><g id="l6cYWqfJ0GDKARHESUIe4gG" fill="rgb(99,69,45)"><g><path id="pYiWS813s" d="M2753 3587 l-473 -191 0 -37 c0 -20 6 -42 14 -48 25 -21 469 -163 526 -168 l55 -5 213 285 c184 247 212 290 212 321 0 35 -1 36 -37 35 -25 0 -206 -69 -510 -192z"></path><path id="pMthRbs9C" d="M3162 3435 c-186 -251 -203 -277 -200 -310 3 -35 5 -37 94 -75 104 -45 187 -92 265 -150 37 -28 63 -40 86 -40 l33 0 0 425 0 425 -37 0 c-38 -1 -38 -1 -241 -275z"></path><path id="pcFNWNjFD" d="M590 2815 l0 -815 28 -11 c15 -6 53 -13 85 -16 l57 -6 0 774 0 774 -47 58 c-42 51 -50 57 -85 57 l-38 0 0 -815z"></path></g></g><g id="l6wtVmezILh6ybf1Qgx6yNP" fill="rgb(11,10,9)"><g><path id="puYXFzxvA" d="M504 3945 l-25 -25 4 -1337 3 -1338 26 -105 c58 -235 151 -410 317 -599 160 -184 420 -350 672 -430 308 -97 710 -100 1009 -7 462 143 831 488 969 902 69 209 65 97 68 1581 l4 1341 -27 21 -27 21 -1484 0 -1484 0 -25 -25z m1276 -141 c0 -52 27 -149 60 -219 94 -196 294 -327 695 -456 72 -22 200 -63 285 -91 208 -66 377 -150 463 -228 94 -86 127 -140 127 -207 0 -29 -2 -53 -5 -53 -3 0 -16 10 -28 21 -12 12 -49 42 -82 66 -170 127 -366 183 -898 254 -487 65 -648 104 -915 227 -363 166 -616 372 -778 634 -24 40 -44 76 -44 80 0 4 252 8 560 8 l560 0 0 -36z m1320 22 c-14 -7 -235 -98 -492 -201 l-467 -187 -49 41 c-90 74 -152 190 -168 312 l-7 49 604 0 c509 -1 600 -3 579 -14z m170 -82 c0 -3 -95 -134 -212 -290 -209 -281 -213 -285 -243 -278 -16 3 -132 40 -257 81 -203 66 -273 98 -243 110 6 2 219 89 475 193 256 103 468 189 473 189 4 1 7 -2 7 -5z m140 -460 c0 -313 -3 -394 -12 -388 -7 5 -32 23 -56 41 -63 47 -165 104 -257 143 -44 19 -84 37 -89 41 -9 8 392 558 407 559 4 0 7 -178 7 -396z m-2725 256 l45 -55 0 -743 0 -744 -32 7 c-18 4 -43 11 -55 16 l-23 9 0 786 c0 517 3 785 10 782 5 -1 30 -28 55 -58z m303 -287 c97 -73 214 -145 335 -204 l87 -43 0 -208 0 -208 -140 0 c-127 0 -142 -2 -160 -20 -25 -25 -25 -51 -2 -79 16 -19 29 -21 157 -23 l140 -3 3 -27 3 -28 -128 0 c-130 0 -166 -8 -186 -41 -15 -24 -1 -64 28 -77 16 -7 78 -12 155 -12 l130 0 0 -30 0 -30 -140 0 c-127 0 -142 -2 -160 -20 -25 -25 -25 -51 -2 -79 16 -19 29 -21 157 -23 l140 -3 7 -55 c7 -61 32 -90 78 -90 38 0 62 31 68 90 l5 50 468 0 469 0 0 -45 c0 -55 33 -95 76 -95 45 0 64 26 64 86 l0 52 129 4 c143 3 171 15 171 68 0 47 -21 55 -164 60 l-131 5 0 25 0 25 133 5 c117 4 135 7 148 24 8 11 14 29 14 40 -1 53 -35 66 -179 66 l-121 0 0 24 c0 24 0 24 129 27 143 4 171 16 171 69 0 47 -21 55 -164 60 l-131 5 -3 59 c-2 32 1 62 5 66 11 11 206 -30 326 -68 54 -17 129 -48 165 -68 88 -49 200 -162 238 -239 l29 -60 3 -377 c2 -208 0 -378 -3 -378 -4 0 -25 13 -48 29 -166 113 -444 199 -767 235 -185 21 -259 25 -525 31 -325 7 -458 26 -653 91 -193 64 -365 166 -487 291 l-55 55 0 540 c0 524 1 540 18 527 11 -8 56 -42 100 -76z m667 -344 c39 -12 96 -30 129 -40 78 -25 232 -53 453 -84 101 -13 201 -28 223 -31 l40 -7 0 -73 0 -74 -470 0 -470 0 0 171 c0 133 3 169 13 165 6 -2 44 -15 82 -27z m845 -474 l0 -25 -470 0 -470 0 0 25 0 25 470 0 470 0 0 -25z m0 -180 l0 -25 -470 0 -470 0 0 25 0 25 470 0 470 0 0 -25z m-1600 -210 c20 -24 129 -99 211 -143 192 -105 424 -169 714 -196 l120 -11 3 -767 c1 -423 -1 -768 -5 -768 -29 1 -201 21 -215 26 -11 3 -78 158 -209 487 l-192 482 -3 93 c-2 52 -11 123 -19 158 -43 188 -175 367 -357 487 l-78 50 0 59 c0 59 8 70 30 43z m-161 -193 c98 -38 169 -85 246 -162 128 -127 185 -250 193 -420 8 -191 -46 -327 -189 -472 -52 -53 -94 -88 -106 -88 -35 0 -140 180 -196 337 -49 135 -59 217 -64 525 -3 158 -3 294 1 303 7 19 16 17 115 -23z m1666 -162 c210 -18 475 -62 475 -80 0 -14 -551 -1404 -560 -1413 -11 -12 -71 -24 -157 -32 l-73 -7 0 771 0 771 98 0 c53 0 151 -5 217 -10z m761 -175 c106 -52 183 -117 214 -180 26 -53 22 -99 -17 -235 -99 -345 -382 -659 -726 -808 -116 -50 -137 -57 -137 -42 0 11 505 1291 517 1313 8 14 52 0 149 -48z m-1766 -917 c73 -183 135 -339 138 -347 4 -11 -1 -12 -24 -7 -55 14 -199 83 -289 138 -88 55 -255 191 -255 208 0 4 24 27 53 50 68 54 154 154 197 229 19 33 38 61 42 61 3 0 66 -150 138 -332z"></path></g></g></svg>
